<?xml version="1.0" encoding="utf-8"?>
<!-- Generator: Adobe Illustrator 25.2.3, SVG Export Plug-In . SVG Version: 6.00 Build 0)  -->
<svg version="1.1" id="Layer_1" xmlns="http://www.w3.org/2000/svg" xmlns:xlink="http://www.w3.org/1999/xlink" x="0px" y="0px"
	 viewBox="0 0 286.7 250.3" style="enable-background:new 0 0 286.7 250.3;" xml:space="preserve">
<style type="text/css">
	.st0{fill:#FFFFFF;}
</style>
<g id="Layer_1-2">
	<path class="st0" d="M136.4,6.6v34.9h-22.6v47.1l-37.6,36.1l0-118.1H136.4 M136.4,2.6H76.2c-2.2,0-4,1.8-4,4l0,118.1
		c0,1.6,1,3.1,2.4,3.7c0.5,0.2,1,0.3,1.6,0.3c1,0,2-0.4,2.8-1.1l37.6-36.1c0.8-0.8,1.2-1.8,1.2-2.9V45.5h18.6c2.2,0,4-1.8,4-4V6.6
		C140.4,4.4,138.7,2.6,136.4,2.6L136.4,2.6z"/>
	<path class="st0" d="M210.4,6.6l0,118.1l-37.6-36.1V41.5h-22.6V6.6H210.4 M210.4,2.6h-60.2c-2.2,0-4,1.8-4,4v34.9c0,2.2,1.8,4,4,4
		h18.6v43.1c0,1.1,0.4,2.1,1.2,2.9l37.6,36.1c0.8,0.7,1.8,1.1,2.8,1.1c0.5,0,1.1-0.1,1.6-0.3c1.5-0.6,2.4-2.1,2.4-3.7l0-118.1
		C214.4,4.4,212.6,2.6,210.4,2.6L210.4,2.6z"/>
	<path class="st0" d="M143.3,79.1l65.9,64.5h-48.6l-17.2-17.2l-17.2,17.2H77.5L143.3,79.1 M143.3,75.1c-1,0-2,0.4-2.8,1.1
		l-65.9,64.5c-1.2,1.1-1.5,2.9-0.9,4.4c0.6,1.5,2.1,2.5,3.7,2.5h48.6c1.1,0,2.1-0.4,2.8-1.2l14.4-14.4l14.4,14.4
		c0.7,0.7,1.8,1.2,2.8,1.2h48.6c1.6,0,3.1-1,3.7-2.5c0.6-1.5,0.3-3.2-0.9-4.4l-65.9-64.5C145.4,75.4,144.3,75.1,143.3,75.1
		L143.3,75.1z"/>
	<path class="st0" d="M132.2,182.9l-20,34.7v25.8H94.9v-26.5l-19.6-34h15.8l12.5,21.9h0.3l12.5-21.9H132.2 M132.2,178.9h-15.9
		c-1.4,0-2.8,0.8-3.5,2l-9.2,16.1l-9.1-16.1c-0.7-1.2-2-2-3.5-2H75.3c-1.4,0-2.7,0.8-3.5,2c-0.7,1.2-0.7,2.8,0,4L90.9,218v25.4
		c0,2.2,1.8,4,4,4h17.3c2.2,0,4-1.8,4-4v-24.7l19.5-33.8c0.7-1.2,0.7-2.8,0-4C135,179.6,133.6,178.9,132.2,178.9L132.2,178.9z"/>
	<path class="st0" d="M181.5,182.7c6.8,0,12.3,1.7,16.6,5.1c4,3,6.4,7.8,6.2,12.8v0.1h-13.7c0-2.2-0.9-4.3-2.5-5.8
		c-1.7-1.4-3.9-2.2-6.1-2.2c-0.2,0-0.4,0-0.6,0c-0.2,0-0.4,0-0.6,0c-2.1,0-4.2,0.6-6,1.8c-1.6,1.1-2.5,2.8-2.5,4.7
		c0,1.8,0.9,3.5,2.5,4.4c2.9,1.6,6,2.9,9.1,3.9c6.9,2,12.1,4.5,15.6,7.4c3.5,2.9,5.1,6.9,5.1,11.9c0.2,4.8-2.2,9.4-6.1,12.1
		c-4.1,2.9-9.7,4.4-16.6,4.4h0c-0.2,0-0.5,0-0.7,0c-6.1,0-12.1-1.8-17.2-5.1c-4.9-3.3-7.4-8.2-7.3-14.4v-0.1h13.7
		c0,3.4,1,5.9,2.9,7.4c1.9,1.5,4.7,2.2,8.5,2.2c2.9,0,5-0.6,6.5-1.7c1.4-1.1,2.3-2.9,2.2-4.7c0.1-1.9-0.7-3.8-2.2-5.1
		c-1.4-1.2-3.9-2.3-7.6-3.6c-7.7-2.4-13.4-4.9-17-7.6c-3.6-2.7-5.5-6.5-5.5-11.5c0-4.8,2.2-8.8,6.5-11.9
		C169,184.3,174.7,182.7,181.5,182.7 M181.5,178.7c-7.6,0-14.1,1.8-19.1,5.3c-5.4,3.8-8.2,9-8.2,15.2c0,6.2,2.4,11.3,7.1,14.7
		c4,3,10.1,5.7,18.1,8.2c3.9,1.4,5.6,2.3,6.3,2.9c0.5,0.4,0.8,1.1,0.7,1.7c0,0.1,0,0.2,0,0.3c0,0.5-0.2,1.1-0.7,1.4
		c-0.7,0.6-2.1,0.9-4,0.9c-2.8,0-4.9-0.5-6.1-1.4c-1.1-0.9-1.4-2.8-1.4-4.2c0-2.2-1.8-4-4-4h-13.7c-2.2,0-4,1.8-4,4v0.1
		c-0.1,7.5,3,13.7,9,17.7c0,0,0,0,0,0c5.8,3.8,12.5,5.8,19.4,5.8c0.3,0,0.5,0,0.8,0c7.7,0,14-1.7,18.8-5.2c5.1-3.5,8-9.2,7.9-15.4
		c0-6.3-2.2-11.3-6.6-14.9c-3.9-3.3-9.7-6.1-17-8.2c-2.9-0.9-5.7-2.1-8.3-3.6c-0.3-0.2-0.5-0.5-0.5-0.9c0-0.6,0.3-1.1,0.8-1.5
		c1.1-0.7,2.4-1.1,3.7-1.1c0.1,0,0.3,0,0.4,0c0.1,0,0.1,0,0.2,0c0.1,0,0.2,0,0.2,0c0.1,0,0.2,0,0.3,0c1.3,0,2.5,0.4,3.5,1.3
		c0.7,0.7,1.2,1.7,1.2,2.7c0,1.1,0.4,2.1,1.2,2.9c0.8,0.8,1.8,1.2,2.8,1.2h13.7c2.2,0,4-1.8,4-4v0c0.2-6.3-2.7-12.3-7.7-16.1
		C195.6,180.7,189.2,178.7,181.5,178.7L181.5,178.7z"/>
	<path class="st0" d="M275,206.6v11h-39.9v-11H275 M275,202.6h-39.9c-2.2,0-4,1.8-4,4v11c0,2.2,1.8,4,4,4H275c2.2,0,4-1.8,4-4v-11
		C279,204.4,277.2,202.6,275,202.6L275,202.6z"/>
	<path class="st0" d="M279.1,182.9v11h-44v-11H279.1 M279.1,178.9h-44c-2.2,0-4,1.8-4,4v11c0,2.2,1.8,4,4,4h44c2.2,0,4-1.8,4-4v-11
		C283.1,180.7,281.3,178.9,279.1,178.9L279.1,178.9z"/>
	<path class="st0" d="M279.1,232.1v11h-44v-11H279.1 M279.1,228.1h-44c-2.2,0-4,1.8-4,4v11c0,2.2,1.8,4,4,4h44c2.2,0,4-1.8,4-4v-11
		C283.1,229.9,281.3,228.1,279.1,228.1L279.1,228.1z"/>
	<path class="st0" d="M31.8,182.8c3,0,6,0.4,9,1.1c2.7,0.7,5.2,1.9,7.5,3.6c2.1,1.7,3.9,3.8,5,6.3c1.3,2.9,1.9,6.1,1.9,9.3
		c0.1,3.2-0.5,6.3-1.9,9.2c-1.2,2.4-2.9,4.5-5,6.2c-1.5,1.1-3.1,2-4.8,2.6l13.5,22.7H42.6l-12.4-20.8H20v20.8H7.6v-32.4h23
		c0,0,0.1,0,0.1,0c1.7,0,3.4-0.1,5.1-0.4c1.4-0.2,2.9-0.6,4.1-1.3c1.3-0.7,2.3-1.7,3-3c2.1-3.7,0.7-8.5-3-10.5
		c-1.3-0.7-2.7-1.1-4.1-1.3c-1.6-0.3-3.3-0.4-5-0.4c-0.1,0-0.2,0-0.2,0h-23v-11.5h24C31.6,182.8,31.7,182.8,31.8,182.8 M31.8,178.8
		L31.8,178.8l-0.3,0l-24,0c-2.2,0-4,1.8-4,4v11.5c0,2.2,1.8,4,4,4h23l0.2,0c1.5,0,2.9,0.1,4.4,0.3c0,0,0,0,0.1,0
		c1,0.1,1.9,0.4,2.8,0.9c1.8,1,2.4,3.3,1.4,5.1c-0.3,0.6-0.8,1.1-1.4,1.4c-0.9,0.5-1.8,0.8-2.8,0.9c0,0,0,0-0.1,0
		c-1.5,0.2-3,0.3-4.5,0.3l-0.1,0l-23,0c-2.2,0-4,1.8-4,4v32.4c0,2.2,1.8,4,4,4H20c2.2,0,4-1.8,4-4v-16.8h3.9l11.2,18.8
		c0.7,1.2,2,2,3.4,2h14.3c1.4,0,2.8-0.8,3.5-2c0.7-1.3,0.7-2.8,0-4l-11.3-19c0.5-0.3,1-0.7,1.5-1.1c0,0,0,0,0,0
		c2.6-2,4.8-4.6,6.2-7.6c0,0,0,0,0-0.1c1.5-3.4,2.3-7.1,2.2-10.9c0.1-3.7-0.7-7.5-2.2-10.9c-1.4-3.1-3.6-5.8-6.2-7.8c0,0,0,0,0,0
		c-2.7-2-5.7-3.4-8.9-4.2C38.5,179.2,35.2,178.8,31.8,178.8L31.8,178.8z"/>
</g>
</svg>
